# xmcd
#
# Track frame offsets: 
#        150
#        13587
#        26310
#        36707
#        49035
#        63847
#        76282
#        89020
#        102632
#        113545
#        128447
#        141210
#        155577
#        165672
#        183080
#
# Disc length: 2731 seconds
#
# Revision: 2
# Processed by: cddbd v1.5.2PL0 Copyright (c) Steve Scherf et al.
# Submitted via: ExactAudioCopy v1.0b1
#
DISCID=bc0aa90f
DTITLE=Various Artist - Classic Country Vol. 22 Great Country Gospel Disc 2
DYEAR=2001
DGENRE=Country
TTITLE0=Stuart Hamblen - This Ole House
TTITLE1=Roy Acuff - The Great Speckled Bird
TTITLE2=Kitty Wells - Dust On The Bible
TTITLE3=Eddy Arnold - The Old Rugged Cross
TTITLE4=Elvis Presley - His Hand In Mine
TTITLE5=Porter Wagoner - What Would You Do (If Jesus Came To Your Hous
TTITLE5=e)
TTITLE6=Patsy Cline - Just A Closer Walk With Thee
TTITLE7=Statler Brothers - How Great Thou Art
TTITLE8=Johnny Cash - Daddy Sang Bass
TTITLE9=Cristy Lane - One Day At A Time
TTITLE10=Charley Pride - The Church In The Wildwood
TTITLE11=Don Gibson - When They Ring The Golden Bells
TTITLE12=Jimmy Dean With The Imperials Quartet And The Jordanaires - I
TTITLE12='ll Fly Away
TTITLE13=Loretta Lynn - What A Friend We Have In Jesus
TTITLE14=Nitty Gritty Dirt Band - Will The Circle Be Unbroken
EXTD=Time-Life Music
EXTT0=
EXTT1=
EXTT2=
EXTT3=
EXTT4=
EXTT5=
EXTT6=
EXTT7=
EXTT8=
EXTT9=
EXTT10=
EXTT11=
EXTT12=
EXTT13=
EXTT14=
PLAYORDER=
